HIERARCHY
ROOT mixamorig:Hips
{
	OFFSET 0.000000 201.639420 0.000000
	CHANNELS 6 Xposition Yposition Zposition Xrotation Yrotation Zrotation
	JOINT mixamorig:Spine
	{
		OFFSET 0.006200 19.524994 -2.481800
		CHANNELS 3 Xrotation Yrotation Zrotation
		JOINT mixamorig:Spine1
		{
			OFFSET -0.000900 22.835007 -2.825400
			CHANNELS 3 Xrotation Yrotation Zrotation
			JOINT mixamorig:Spine2
			{
				OFFSET -0.020600 26.552490 -3.193300
				CHANNELS 3 Xrotation Yrotation Zrotation
				JOINT mixamorig:Neck
				{
					OFFSET -0.060000 30.701813 1.352200
					CHANNELS 3 Xrotation Yrotation Zrotation
					JOINT mixamorig:Head
					{
						OFFSET -0.087200 22.547607 3.670900
						CHANNELS 3 Xrotation Yrotation Zrotation
						JOINT mixamorig:HeadTop_End
						{
							OFFSET -0.830600 40.355194 7.893500
							CHANNELS 3 Xrotation Yrotation Zrotation
							End Site
							{
								OFFSET 0.000000 30.592346 0.000000
							}
						}
						JOINT mixamorig:RightEye
						{
							OFFSET -6.302100 18.118591 16.197100
							CHANNELS 3 Xrotation Yrotation Zrotation
							End Site
							{
								OFFSET 0.000000 30.592346 0.000000
							}
						}
						JOINT mixamorig:LeftEye
						{
							OFFSET 6.741500 18.382690 16.401899
							CHANNELS 3 Xrotation Yrotation Zrotation
							End Site
							{
								OFFSET 0.000000 30.592346 0.000000
							}
						}
					}
				}
				JOINT mixamorig:LeftShoulder
				{
					OFFSET 11.924900 18.230499 1.425400
					CHANNELS 3 Xrotation Yrotation Zrotation
					JOINT mixamorig:LeftArm
					{
						OFFSET 25.435989 -0.697632 -5.229300
						CHANNELS 3 Xrotation Yrotation Zrotation
						JOINT mixamorig:LeftForeArm
						{
							OFFSET 54.684776 0.000000 0.000000
							CHANNELS 3 Xrotation Yrotation Zrotation
							JOINT mixamorig:LeftHand
							{
								OFFSET 55.098175 0.000000 0.000000
								CHANNELS 3 Xrotation Yrotation Zrotation
								JOINT mixamorig:LeftHandMiddle1
								{
									OFFSET 23.369751 0.000000 0.000000
									CHANNELS 3 Xrotation Yrotation Zrotation
									JOINT mixamorig:LeftHandMiddle2
									{
										OFFSET 6.378677 0.000000 0.000000
										CHANNELS 3 Xrotation Yrotation Zrotation
										JOINT mixamorig:LeftHandMiddle3
										{
											OFFSET 6.148331 0.000000 0.000000
											CHANNELS 3 Xrotation Yrotation Zrotation
											JOINT mixamorig:LeftHandMiddle4
											{
												OFFSET 6.582504 0.000000 0.000000
												CHANNELS 3 Xrotation Yrotation Zrotation
												End Site
												{
													OFFSET -1.168900 6.395691 1.028606
												}
											}
										}
									}
								}
								JOINT mixamorig:LeftHandThumb1
								{
									OFFSET 7.235672 -3.848206 5.434273
									CHANNELS 3 Xrotation Yrotation Zrotation
									JOINT mixamorig:LeftHandThumb2
									{
										OFFSET 6.568451 -3.792297 3.792300
										CHANNELS 3 Xrotation Yrotation Zrotation
										JOINT mixamorig:LeftHandThumb3
										{
											OFFSET 6.063080 -3.500519 3.500518
											CHANNELS 3 Xrotation Yrotation Zrotation
											JOINT mixamorig:LeftHandThumb4
											{
												OFFSET 4.793182 -2.767334 2.767349
												CHANNELS 3 Xrotation Yrotation Zrotation
												End Site
												{
													OFFSET 0.101639 6.054260 1.275483
												}
											}
										}
									}
								}
								JOINT mixamorig:LeftHandIndex1
								{
									OFFSET 23.101074 -0.309540 4.992809
									CHANNELS 3 Xrotation Yrotation Zrotation
									JOINT mixamorig:LeftHandIndex2
									{
										OFFSET 6.226883 0.000000 0.000000
										CHANNELS 3 Xrotation Yrotation Zrotation
										JOINT mixamorig:LeftHandIndex3
										{
											OFFSET 6.094330 0.000000 0.000000
											CHANNELS 3 Xrotation Yrotation Zrotation
											JOINT mixamorig:LeftHandIndex4
											{
												OFFSET 5.482605 0.000000 0.000000
												CHANNELS 3 Xrotation Yrotation Zrotation
												End Site
												{
													OFFSET -1.427902 5.233032 0.797164
												}
											}
										}
									}
								}
								JOINT mixamorig:LeftHandRing1
								{
									OFFSET 22.299240 0.021149 -3.964172
									CHANNELS 3 Xrotation Yrotation Zrotation
									JOINT mixamorig:LeftHandRing2
									{
										OFFSET 6.321869 0.000000 0.000000
										CHANNELS 3 Xrotation Yrotation Zrotation
										JOINT mixamorig:LeftHandRing3
										{
											OFFSET 5.899796 0.000000 0.000000
											CHANNELS 3 Xrotation Yrotation Zrotation
											JOINT mixamorig:LeftHandRing4
											{
												OFFSET 6.517899 0.000000 0.000000
												CHANNELS 3 Xrotation Yrotation Zrotation
												End Site
												{
													OFFSET -1.637299 6.232208 0.980890
												}
											}
										}
									}
								}
								JOINT mixamorig:LeftHandPinky1
								{
									OFFSET 20.463791 -0.302338 -8.562233
									CHANNELS 3 Xrotation Yrotation Zrotation
									JOINT mixamorig:LeftHandPinky2
									{
										OFFSET 6.908646 0.000000 0.000000
										CHANNELS 3 Xrotation Yrotation Zrotation
										JOINT mixamorig:LeftHandPinky3
										{
											OFFSET 4.622849 0.000000 0.000000
											CHANNELS 3 Xrotation Yrotation Zrotation
											JOINT mixamorig:LeftHandPinky4
											{
												OFFSET 5.216080 0.000000 0.000000
												CHANNELS 3 Xrotation Yrotation Zrotation
												End Site
												{
													OFFSET -0.606308 5.116241 0.814926
												}
											}
										}
									}
								}
							}
						}
					}
				}
				JOINT mixamorig:RightShoulder
				{
					OFFSET -12.001300 18.284088 1.348900
					CHANNELS 3 Xrotation Yrotation Zrotation
					JOINT mixamorig:RightArm
					{
						OFFSET -25.308500 -0.751312 -5.164599
						CHANNELS 3 Xrotation Yrotation Zrotation
						JOINT mixamorig:RightForeArm
						{
							OFFSET -54.684429 0.000000 0.000000
							CHANNELS 3 Xrotation Yrotation Zrotation
							JOINT mixamorig:RightHand
							{
								OFFSET -55.150291 0.000000 0.000000
								CHANNELS 3 Xrotation Yrotation Zrotation
								JOINT mixamorig:RightHandMiddle1
								{
									OFFSET -23.317566 0.000000 0.000000
									CHANNELS 3 Xrotation Yrotation Zrotation
									JOINT mixamorig:RightHandMiddle2
									{
										OFFSET -6.378403 0.000000 0.000000
										CHANNELS 3 Xrotation Yrotation Zrotation
										JOINT mixamorig:RightHandMiddle3
										{
											OFFSET -6.148193 0.000000 0.000000
											CHANNELS 3 Xrotation Yrotation Zrotation
											JOINT mixamorig:RightHandMiddle4
											{
												OFFSET -6.583389 0.000000 0.000000
												CHANNELS 3 Xrotation Yrotation Zrotation
												End Site
												{
													OFFSET 1.171692 6.395905 1.029786
												}
											}
										}
									}
								}
								JOINT mixamorig:RightHandThumb1
								{
									OFFSET -7.190521 -3.860474 5.435846
									CHANNELS 3 Xrotation Yrotation Zrotation
									JOINT mixamorig:RightHandThumb2
									{
										OFFSET -6.567429 -3.791718 3.791708
										CHANNELS 3 Xrotation Yrotation Zrotation
										JOINT mixamorig:RightHandThumb3
										{
											OFFSET -6.062469 -3.500153 3.500166
											CHANNELS 3 Xrotation Yrotation Zrotation
											JOINT mixamorig:RightHandThumb4
											{
												OFFSET -4.792618 -2.767029 2.767022
												CHANNELS 3 Xrotation Yrotation Zrotation
												End Site
												{
													OFFSET -0.100327 6.053253 1.276754
												}
											}
										}
									}
								}
								JOINT mixamorig:RightHandIndex1
								{
									OFFSET -23.048981 -0.310791 4.992554
									CHANNELS 3 Xrotation Yrotation Zrotation
									JOINT mixamorig:RightHandIndex2
									{
										OFFSET -6.227539 0.000000 0.000000
										CHANNELS 3 Xrotation Yrotation Zrotation
										JOINT mixamorig:RightHandIndex3
										{
											OFFSET -6.095047 0.000000 0.000000
											CHANNELS 3 Xrotation Yrotation Zrotation
											JOINT mixamorig:RightHandIndex4
											{
												OFFSET -5.484772 0.000000 0.000000
												CHANNELS 3 Xrotation Yrotation Zrotation
												End Site
												{
													OFFSET 1.420593 5.237305 0.797056
												}
											}
										}
									}
								}
								JOINT mixamorig:RightHandRing1
								{
									OFFSET -22.246323 0.020569 -3.963762
									CHANNELS 3 Xrotation Yrotation Zrotation
									JOINT mixamorig:RightHandRing2
									{
										OFFSET -6.322128 0.000000 0.000000
										CHANNELS 3 Xrotation Yrotation Zrotation
										JOINT mixamorig:RightHandRing3
										{
											OFFSET -5.900024 0.000000 0.000000
											CHANNELS 3 Xrotation Yrotation Zrotation
											JOINT mixamorig:RightHandRing4
											{
												OFFSET -6.518356 0.000000 0.000000
												CHANNELS 3 Xrotation Yrotation Zrotation
												End Site
												{
													OFFSET 1.636398 6.232697 0.982186
												}
											}
										}
									}
								}
								JOINT mixamorig:RightHandPinky1
								{
									OFFSET -20.411011 -0.303314 -8.561701
									CHANNELS 3 Xrotation Yrotation Zrotation
									JOINT mixamorig:RightHandPinky2
									{
										OFFSET -6.907349 0.000000 0.000000
										CHANNELS 3 Xrotation Yrotation Zrotation
										JOINT mixamorig:RightHandPinky3
										{
											OFFSET -4.623840 0.000000 0.000000
											CHANNELS 3 Xrotation Yrotation Zrotation
											JOINT mixamorig:RightHandPinky4
											{
												OFFSET -5.218353 0.000000 0.000000
												CHANNELS 3 Xrotation Yrotation Zrotation
												End Site
												{
													OFFSET 0.602097 5.118835 0.816273
												}
											}
										}
									}
								}
							}
						}
					}
				}
			}
		}
	}
	JOINT mixamorig:LeftUpLeg
	{
		OFFSET 18.168400 -13.561905 -0.039000
		CHANNELS 3 Xrotation Yrotation Zrotation
		JOINT mixamorig:LeftLeg
		{
			OFFSET 0.577358 -80.825211 -3.695000
			CHANNELS 3 Xrotation Yrotation Zrotation
			JOINT mixamorig:LeftFoot
			{
				OFFSET -0.577356 -83.370262 -6.520700
				CHANNELS 3 Xrotation Yrotation Zrotation
				JOINT mixamorig:LeftToeBase
				{
					OFFSET 0.750401 -20.798306 25.135401
					CHANNELS 3 Xrotation Yrotation Zrotation
					JOINT mixamorig:LeftToe_End
					{
						OFFSET -0.000500 0.001200 19.917799
						CHANNELS 3 Xrotation Yrotation Zrotation
						End Site
						{
							OFFSET 0.000000 19.917805 0.000000
						}
					}
				}
			}
		}
	}
	JOINT mixamorig:RightUpLeg
	{
		OFFSET -18.162500 -13.585098 -0.041000
		CHANNELS 3 Xrotation Yrotation Zrotation
		JOINT mixamorig:RightLeg
		{
			OFFSET -0.595024 -80.945297 -3.631900
			CHANNELS 3 Xrotation Yrotation Zrotation
			JOINT mixamorig:RightFoot
			{
				OFFSET 0.595024 -83.218193 -6.561200
				CHANNELS 3 Xrotation Yrotation Zrotation
				JOINT mixamorig:RightToeBase
				{
					OFFSET -0.753601 -20.807106 25.115000
					CHANNELS 3 Xrotation Yrotation Zrotation
					JOINT mixamorig:RightToe_End
					{
						OFFSET 0.000299 0.001700 19.918200
						CHANNELS 3 Xrotation Yrotation Zrotation
						End Site
						{
							OFFSET 0.000000 19.918203 0.000000
						}
					}
				}
			}
		}
	}
}
MOTION
Frames: 4
Frame Time: 0.033333
3.304955 188.162674 -10.570734 2.371648 -10.272377 18.749633 -2.978145 -5.470173 -6.941938 4.506575 -1.136082 -2.071494 4.492376 -1.057397 -2.142412 19.340063 -0.585717 2.350626 16.955627 -0.677958 -2.847597 0.000001 0.000000 -0.000000 0.000001 0.000000 -0.000000 0.000001 0.000000 -0.000000 0.494727 7.199789 -11.275849 42.337897 -69.468331 -23.412422 0.000002 -24.481927 0.000007 -10.395074 -1.787469 -4.754102 0.168122 1.515271 -12.661692 0.168985 1.519009 -12.693694 0.042246 0.763224 -6.337734 0.000002 0.000000 0.000002 -1.558369 5.268772 6.377027 4.800784 18.643268 1.528253 -0.091667 6.909926 3.060031 0.000002 -0.000004 -0.000001 0.168546 1.517146 -12.677673 0.168554 1.517133 -12.677694 0.042255 0.763243 -6.337721 -0.000000 0.000000 -0.000000 0.168546 1.517147 -12.677669 0.168554 1.517143 -12.677693 0.042253 0.763244 -6.337724 -0.000000 0.000001 0.000001 1.044009 5.476186 -12.220675 0.164102 -2.538665 -13.176062 0.042248 0.763252 -6.337731 -0.000001 -0.000001 -0.000003 1.107866 2.076127 11.636977 -17.168608 -9.292834 76.929944 -0.000001 5.973012 -0.000004 18.950397 3.920224 3.933860 0.073435 -1.009967 8.317468 0.073434 -1.009967 8.317457 0.018388 -0.506316 4.158400 0.000000 0.000000 -0.000004 -1.849250 -3.581800 -6.586123 5.652735 -20.117559 -0.987248 -0.748798 -5.588993 -2.702392 -0.000001 -0.000001 0.000000 0.073436 -1.009969 8.317477 0.073435 -1.009965 8.317464 0.018387 -0.506319 4.158399 -0.000000 -0.000000 -0.000001 0.073438 -1.009973 8.317470 0.073434 -1.009968 8.317455 0.018382 -0.506316 4.158407 0.000000 0.000001 0.000001 0.073434 -1.009966 8.317482 0.073438 -1.009970 8.317450 0.018381 -0.506316 4.158405 -0.000002 0.000000 -0.000002 -21.567038 3.319316 -9.451495 28.768945 9.369251 0.228379 -6.184833 9.790511 -10.084752 -0.308229 -0.000001 -0.000002 -0.000000 0.000000 0.000000 -36.768828 -4.226728 -12.382552 53.507716 8.330912 -9.522937 -19.494832 8.632057 -4.334040 -1.669361 -0.000002 -0.000002 0.000000 -0.000000 -0.000000 
3.330124 188.174622 -10.608818 2.359162 -10.202551 18.717701 -2.952895 -5.527364 -6.886242 4.539048 -1.144642 -2.060207 4.524690 -1.066393 -2.132082 19.296572 -0.571986 2.302669 16.901238 -0.661296 -2.770711 -0.000002 0.000000 -0.000000 -0.000002 0.000000 -0.000000 -0.000002 0.000000 -0.000000 0.506288 7.326219 -11.468167 42.021130 -69.364512 -23.609729 0.000000 -24.465259 -0.000009 -10.104702 -1.760387 -4.801068 0.168123 1.515271 -12.661695 0.168984 1.519012 -12.693693 0.042246 0.763224 -6.337735 0.000002 -0.000001 0.000001 -1.558369 5.268772 6.377025 4.800783 18.643266 1.528252 -0.091667 6.909927 3.060028 0.000000 -0.000001 0.000000 0.168547 1.517148 -12.677680 0.168555 1.517135 -12.677696 0.042255 0.763243 -6.337721 -0.000000 0.000001 -0.000001 0.168546 1.517146 -12.677670 0.168555 1.517147 -12.677694 0.042254 0.763243 -6.337727 -0.000000 -0.000001 -0.000000 1.044010 5.476185 -12.220675 0.164103 -2.538665 -13.176061 0.042249 0.763251 -6.337728 0.000000 0.000001 0.000001 1.100828 2.000162 11.505344 -17.215526 -9.195356 77.056036 0.000004 5.987026 0.000010 18.941826 3.937180 3.924167 0.073437 -1.009969 8.317469 0.073432 -1.009969 8.317456 0.018388 -0.506317 4.158403 0.000000 0.000000 -0.000003 -1.849247 -3.581802 -6.586123 5.652735 -20.117559 -0.987248 -0.748796 -5.588992 -2.702393 -0.000001 -0.000001 0.000000 0.073437 -1.009970 8.317478 0.073436 -1.009964 8.317462 0.018386 -0.506318 4.158402 -0.000001 0.000001 -0.000003 0.073438 -1.009973 8.317470 0.073434 -1.009968 8.317456 0.018385 -0.506313 4.158411 -0.000001 -0.000001 -0.000000 0.073435 -1.009968 8.317480 0.073439 -1.009970 8.317455 0.018382 -0.506318 4.158407 -0.000001 0.000001 -0.000000 -21.596858 3.242215 -9.472107 28.762019 9.378570 0.260843 -6.156806 9.821359 -10.094903 -0.308229 -0.000000 -0.000002 0.000000 0.000001 0.000000 -36.748737 -4.160644 -12.400594 53.478086 8.344376 -9.394094 -19.461881 8.547044 -4.374532 -1.658234 0.000002 0.000002 0.000000 -0.000000 -0.000000 
3.326439 188.188095 -10.628276 2.356920 -10.170810 18.690066 -2.995059 -5.541533 -6.823094 4.606987 -1.150819 -2.098522 4.591877 -1.071930 -2.171733 19.260935 -0.553186 2.286789 16.863387 -0.628925 -2.626488 0.000004 -0.000000 -0.000002 0.000004 -0.000000 -0.000002 0.000004 -0.000000 -0.000002 0.508631 7.395897 -11.529292 42.087749 -69.340593 -23.419255 0.000001 -24.454671 0.000014 -10.054398 -1.753913 -4.795354 0.168121 1.515270 -12.661695 0.168986 1.519011 -12.693692 0.042246 0.763225 -6.337736 0.000001 -0.000001 -0.000001 -1.558368 5.268772 6.377028 4.800782 18.643268 1.528252 -0.091669 6.909928 3.060026 0.000002 -0.000001 -0.000000 0.168545 1.517147 -12.677676 0.168556 1.517133 -12.677694 0.042255 0.763243 -6.337724 -0.000000 -0.000000 -0.000001 0.168547 1.517149 -12.677670 0.168554 1.517143 -12.677695 0.042254 0.763244 -6.337726 -0.000001 -0.000000 -0.000001 1.044009 5.476185 -12.220674 0.164103 -2.538664 -13.176061 0.042249 0.763250 -6.337730 0.000000 0.000000 0.000000 1.096099 1.925755 11.571134 -17.320682 -9.061808 77.055285 -0.000006 5.987018 -0.000004 18.971506 3.950186 3.915407 0.073436 -1.009965 8.317469 0.073436 -1.009969 8.317457 0.018388 -0.506315 4.158405 0.000002 -0.000001 -0.000000 -1.849247 -3.581799 -6.586123 5.652733 -20.117559 -0.987248 -0.748796 -5.588993 -2.702393 0.000000 -0.000001 -0.000000 0.073437 -1.009967 8.317478 0.073436 -1.009962 8.317462 0.018387 -0.506317 4.158401 0.000001 0.000002 -0.000000 0.073439 -1.009968 8.317472 0.073435 -1.009970 8.317453 0.018384 -0.506310 4.158408 -0.000001 -0.000000 0.000000 0.073434 -1.009966 8.317483 0.073438 -1.009971 8.317451 0.018383 -0.506317 4.158407 0.000000 0.000001 -0.000001 -21.606438 3.197189 -9.463882 28.744885 9.384252 0.275933 -6.135928 9.841274 -10.105556 -0.308229 -0.000000 -0.000002 -0.000000 -0.000000 -0.000000 -36.714289 -4.089276 -12.367943 53.445257 8.352042 -9.319551 -19.437658 8.456162 -4.400957 -1.656310 0.000001 -0.000000 0.000000 0.000000 0.000000 
3.291702 188.192657 -10.626290 2.359459 -10.168992 18.681756 -3.068889 -5.512561 -6.794994 4.659713 -1.151582 -2.157016 4.643802 -1.071555 -2.231020 19.248387 -0.584995 2.391152 16.707145 -0.680394 -2.784791 -0.000001 -0.000001 0.000000 -0.000001 -0.000001 0.000000 -0.000001 -0.000001 0.000000 0.502877 7.374562 -11.456908 41.991911 -69.324187 -23.465841 -0.000002 -24.440526 0.000003 -10.087177 -1.773562 -4.763394 0.168121 1.515268 -12.661695 0.168987 1.519010 -12.693692 0.042246 0.763223 -6.337737 -0.000000 -0.000000 0.000000 -1.558370 5.268770 6.377030 4.800782 18.643264 1.528257 -0.091668 6.909927 3.060028 0.000001 0.000002 -0.000000 0.168546 1.517146 -12.677675 0.168556 1.517132 -12.677694 0.042255 0.763247 -6.337721 -0.000000 -0.000000 0.000001 0.168547 1.517146 -12.677669 0.168553 1.517146 -12.677693 0.042253 0.763246 -6.337725 0.000000 -0.000001 -0.000000 1.044008 5.476184 -12.220675 0.164103 -2.538663 -13.176063 0.042248 0.763251 -6.337732 -0.000001 -0.000000 -0.000001 1.097550 1.917670 11.740732 -17.399297 -9.031235 76.969368 0.000005 5.989089 -0.000007 19.032619 3.956376 3.903396 0.073435 -1.009967 8.317470 0.073433 -1.009968 8.317458 0.018387 -0.506317 4.158398 0.000002 -0.000000 0.000001 -1.849249 -3.581802 -6.586123 5.652737 -20.117559 -0.987248 -0.748795 -5.588992 -2.702394 -0.000001 0.000001 0.000000 0.073436 -1.009970 8.317478 0.073436 -1.009963 8.317464 0.018385 -0.506319 4.158402 -0.000001 -0.000001 -0.000002 0.073438 -1.009974 8.317469 0.073435 -1.009967 8.317454 0.018385 -0.506311 4.158408 -0.000001 0.000002 -0.000000 0.073435 -1.009966 8.317482 0.073437 -1.009970 8.317456 0.018382 -0.506315 4.158407 0.000000 0.000001 -0.000002 -21.602872 3.161193 -9.446446 28.729579 9.382166 0.264392 -6.127141 9.867386 -10.114097 -0.308229 -0.000000 -0.000002 0.000000 -0.000000 0.000000 -36.682911 -4.021270 -12.325394 53.432181 8.357775 -9.280770 -19.431513 8.379526 -4.424357 -1.667574 -0.000000 0.000001 -0.000000 -0.000000 0.000000 
